<?xml version="1.0" standalone="no"?>
<!DOCTYPE svg PUBLIC "-//W3C//DTD SVG 20010904//EN"
 "http://www.w3.org/TR/2001/REC-SVG-20010904/DTD/svg10.dtd">
<svg version="1.0" xmlns="http://www.w3.org/2000/svg"
 width="260.000000pt" height="260.000000pt" viewBox="0 0 260.000000 260.000000"
 preserveAspectRatio="xMidYMid meet">
<metadata>
Created by potrace 1.14, written by Peter Selinger 2001-2017
</metadata>
<g transform="translate(0.000000,260.000000) scale(0.100000,-0.100000)"
fill="#000000" stroke="none">
<path d="M751 1928 c-28 -14 -54 -37 -72 -67 l-29 -45 0 -380 c0 -368 1 -381
21 -424 15 -29 37 -54 67 -73 45 -28 49 -29 188 -29 l142 0 -11 -42 c-6 -25
-26 -61 -49 -85 -41 -46 -47 -76 -22 -111 15 -22 17 -22 310 -22 281 0 295 1
314 20 31 31 25 65 -18 113 -23 24 -43 60 -49 85 l-11 42 136 0 c164 0 206 15
253 88 l29 46 0 380 c0 368 -1 381 -21 424 -15 29 -37 54 -67 73 l-46 29 -510
0 c-504 0 -512 0 -555 -22z m1044 -133 l25 -24 0 -236 0 -235 -520 0 -520 0 0
235 0 236 25 24 24 25 471 0 471 0 24 -25z m25 -665 c0 -30 -7 -47 -25 -65
l-24 -25 -471 0 -471 0 -24 25 c-18 18 -25 35 -25 65 l0 40 520 0 520 0 0 -40z
m-413 -275 c20 -79 26 -75 -107 -75 -89 0 -120 3 -120 13 0 11 16 75 25 105 4
9 28 12 97 10 l92 -3 13 -50z"/>
</g>
</svg>
